<svg width="12" height="12" viewBox="0 0 12 12" fill="none" xmlns="http://www.w3.org/2000/svg">
<path d="M10.9408 0.166585H1.05916C0.948081 0.165043 0.837786 0.185397 0.734573 0.226484C0.631361 0.267572 0.537254 0.328589 0.457625 0.406051C0.377997 0.483512 0.314408 0.575901 0.270489 0.677941C0.22657 0.779981 0.203182 0.889673 0.20166 1.00075V10.9991C0.203182 11.1102 0.22657 11.2199 0.270489 11.3219C0.314408 11.4239 0.377997 11.5163 0.457625 11.5938C0.537254 11.6712 0.631361 11.7323 0.734573 11.7734C0.837786 11.8144 0.948081 11.8348 1.05916 11.8333H10.9408C11.0519 11.8348 11.1622 11.8144 11.2654 11.7734C11.3686 11.7323 11.4627 11.6712 11.5424 11.5938C11.622 11.5163 11.6856 11.4239 11.7295 11.3219C11.7734 11.2199 11.7968 11.1102 11.7983 10.9991V1.00075C11.7968 0.889673 11.7734 0.779981 11.7295 0.677941C11.6856 0.575901 11.622 0.483512 11.5424 0.406051C11.4627 0.328589 11.3686 0.267572 11.2654 0.226484C11.1622 0.185397 11.0519 0.165043 10.9408 0.166585V0.166585ZM3.71916 9.93158H1.96916V4.68159H3.71916V9.93158ZM2.84416 3.94659C2.60281 3.94659 2.37135 3.85071 2.20069 3.68005C2.03003 3.50939 1.93416 3.27793 1.93416 3.03659C1.93416 2.79524 2.03003 2.56378 2.20069 2.39312C2.37135 2.22246 2.60281 2.12659 2.84416 2.12659C2.97232 2.11205 3.1021 2.12475 3.225 2.16385C3.34791 2.20295 3.46117 2.26757 3.55738 2.35348C3.65358 2.43939 3.73055 2.54465 3.78325 2.66237C3.83595 2.78009 3.8632 2.90761 3.8632 3.03659C3.8632 3.16556 3.83595 3.29309 3.78325 3.4108C3.73055 3.52852 3.65358 3.63378 3.55738 3.71969C3.46117 3.8056 3.34791 3.87022 3.225 3.90932C3.1021 3.94842 2.97232 3.96112 2.84416 3.94659V3.94659ZM10.0308 9.93158H8.28083V7.11409C8.28083 6.40825 8.02999 5.94742 7.39416 5.94742C7.19738 5.94886 7.00577 6.01058 6.84515 6.12427C6.68453 6.23796 6.56261 6.39815 6.49583 6.58325C6.45018 6.72036 6.4304 6.86475 6.43749 7.00909V9.92575H4.68749C4.68749 9.92575 4.68749 5.15408 4.68749 4.67575H6.43749V5.41659C6.59647 5.14073 6.82769 4.91347 7.10625 4.75929C7.38481 4.6051 7.70016 4.52983 8.01833 4.54159C9.18499 4.54159 10.0308 5.29409 10.0308 6.90992V9.93158Z" fill="white"/>
</svg>
